<?xml version="1.0" standalone="no"?><svg xmlns="http://www.w3.org/2000/svg" viewBox="0 0 1440 320"><path fill="#0099ff" fill-opacity="1" d="M0,160L34.3,144C68.6,128,137,96,206,96C274.3,96,343,128,411,154.7C480,181,549,203,617,192C685.7,181,754,139,823,101.3C891.4,64,960,32,1029,53.3C1097.1,75,1166,149,1234,160C1302.9,171,1371,117,1406,90.7L1440,64L1440,320L1405.7,320C1371.4,320,1303,320,1234,320C1165.7,320,1097,320,1029,320C960,320,891,320,823,320C754.3,320,686,320,617,320C548.6,320,480,320,411,320C342.9,320,274,320,206,320C137.1,320,69,320,34,320L0,320Z"></path></svg>